<?xml version="1.0" standalone="no"?>
<!DOCTYPE svg PUBLIC "-//W3C//DTD SVG 20010904//EN"
 "http://www.w3.org/TR/2001/REC-SVG-20010904/DTD/svg10.dtd">
<svg version="1.0" xmlns="http://www.w3.org/2000/svg"
 width="260.000000pt" height="260.000000pt" viewBox="0 0 260.000000 260.000000"
 preserveAspectRatio="xMidYMid meet">
<metadata>
Created by potrace 1.14, written by Peter Selinger 2001-2017
</metadata>
<g transform="translate(0.000000,260.000000) scale(0.100000,-0.100000)"
fill="#000000" stroke="none">
<path d="M1215 2409 c-43 -99 -83 -182 -89 -184 -6 -1 -46 -12 -89 -24 -311
-86 -559 -335 -648 -651 l-26 -95 -182 -79 -182 -79 58 -27 c32 -14 115 -51
185 -80 l126 -54 6 -39 c10 -61 52 -173 95 -252 36 -67 38 -75 26 -101 -49
-107 -154 -358 -152 -360 2 -2 70 42 153 97 82 56 155 103 161 106 7 3 30 -9
50 -26 21 -18 44 -36 51 -42 56 -45 249 -128 334 -144 21 -4 42 -12 47 -19 6
-6 44 -90 85 -186 l75 -174 29 65 c15 35 52 119 82 186 39 92 57 123 71 123
69 0 289 96 383 168 27 20 54 41 61 46 8 6 63 -25 170 -97 87 -59 160 -105
162 -103 2 1 -8 29 -23 62 -14 32 -32 73 -39 89 -7 17 -33 77 -58 134 l-45
103 39 72 c48 89 80 174 94 252 l7 40 184 79 c101 43 183 80 181 82 -2 1 -84
38 -182 81 l-178 77 -27 96 c-93 336 -360 586 -710 667 -34 8 -37 12 -114 190
-44 100 -82 182 -86 182 -3 0 -41 -81 -85 -181z m218 -359 c52 -124 157 -371
232 -550 76 -179 184 -434 240 -567 99 -233 104 -256 50 -206 -11 10 -81 65
-155 123 -74 57 -137 107 -140 110 -7 7 -260 206 -314 246 l-43 32 0 557 c0
538 1 555 18 518 9 -21 60 -139 112 -263z m-437 -147 c-18 -43 -84 -195 -146
-338 -62 -143 -116 -269 -120 -280 -4 -11 -19 -45 -33 -75 -14 -30 -35 -80
-48 -110 -29 -72 -34 -76 -48 -43 -40 98 -49 300 -17 419 54 206 182 366 381
476 28 15 53 28 57 28 4 0 -8 -35 -26 -77z m627 56 c204 -104 350 -290 399
-510 10 -41 14 -105 13 -170 -3 -115 -7 -135 -42 -239 -6 -21 -11 -11 -148
305 -64 149 -137 317 -162 375 -96 221 -112 260 -107 260 3 0 24 -10 47 -21z
m-102 -1084 c112 -76 210 -143 217 -150 11 -10 9 -16 -15 -33 -52 -37 -167
-90 -233 -108 -127 -33 -318 -26 -435 17 -56 21 -152 71 -180 94 l-29 22 170
114 c93 63 194 130 224 151 30 20 60 35 66 33 6 -1 102 -65 215 -140z"/>
</g>
</svg>
