<svg id="Layer_1" data-name="Layer 1" xmlns="http://www.w3.org/2000/svg" viewBox="0 0 141.47 59.44">
  <defs>
    <style>
      .cls-1, .cls-2, .cls-3 {
        stroke-width: 0px;
      }

      .cls-2 {
        fill: #16a0db;
      }

      .cls-3 {
        fill: #e20a22;
      }
    </style>
  </defs>
  <g>
    <polygon class="cls-1" points="96.95 32.96 102.61 28.37 104.44 28.37 98.82 32.91 105.12 38.61 103.15 38.61 96.95 32.96"/>
    <rect class="cls-1" x="95" y="23.99" width="1.4" height="14.6"/>
    <rect class="cls-1" x="105.8" y="23.99" width="1.4" height="14.6"/>
    <path class="cls-1" d="m118.11,37.02c-.67.38-2.19.76-3.23.76-2.47,0-3.79-1.74-3.79-3.92h7.87v-.64c0-2.76-1.34-5.09-4.58-5.09-2.91,0-4.85,2.23-4.85,5.37s1.42,5.37,5.23,5.37c1.05,0,2.34-.2,3.34-.56v-1.28m-7.02-4.25c0-1.69,1.29-3.56,3.38-3.56s2.92,1.77,2.92,3.56h-6.3Zm18.28,4.25c-.67.38-2.19.76-3.23.76-2.49,0-3.79-1.74-3.79-3.92h7.87v-.64c0-2.76-1.34-5.09-4.58-5.09-2.91,0-4.85,2.23-4.85,5.37s1.42,5.37,5.23,5.37c1.05,0,2.34-.2,3.33-.56v-1.28m-6.99-4.25c0-1.69,1.29-3.56,3.38-3.56s2.92,1.77,2.92,3.56h-6.3Zm10.11-1.99c0-.79,0-1.59-.08-2.41h1.37v1.82h.05c.47-.92,1.34-2.07,3.73-2.07,2.84,0,3.93,1.69,3.93,3.94v6.55h-1.42v-6.22c0-1.94-.77-3.18-2.72-3.18-2.59,0-3.41,2.04-3.41,3.74v5.66h-1.42v-7.83m-90.16-.34c-.92-.28-1.6-.44-2.71-.44-.82,0-1.79.26-1.79,1.15,0,1.66,5.25.61,5.25,4.35,0,2.4-2.41,3.38-4.86,3.38-1.15,0-2.32-.18-3.43-.44l.18-2.2c.95.41,1.94.67,2.97.67.77,0,1.99-.26,1.99-1.26,0-2.02-5.25-.64-5.25-4.38,0-2.23,2.19-3.22,4.56-3.22,1.42,0,2.34.2,3.29.38l-.22,2.02m3.26.69c1.02-.69,2.31-1.12,3.59-1.12,1.77,0,2.62.56,2.62,2.23h-1.67c-1.27,0-2.76.1-3.91.61-1.15.51-1.99,1.41-1.99,2.95,0,1.97,2.01,3.07,4.06,3.07,1.37,0,2.89-.64,3.58-1.79h.05c.02.31.02,1,.13,1.54h2.66c-.07-.8-.12-1.53-.13-2.31-.02-.77-.05-1.54-.05-2.59v-1.33c0-3.05-1.47-4.37-5-4.37-1.29,0-2.86.3-4.04.79l.1,2.31m1.54,4.5c0-1.58,2.01-1.79,3.36-1.79h1.3c0,.8-.13,1.54-.64,2.13-.47.56-1.2.92-2.12.92-1.07,0-1.91-.38-1.91-1.26m9.71-5.38v-3.41c0-2.07,1.3-3.53,3.69-3.53.77,0,1.62.1,2.21.23l-.25,2.23c-.27-.15-.65-.36-1.3-.36-1.02,0-1.34.79-1.34,1.59v1.28h2.64v1.97h-2.64v8.39h-3.02v-8.39m16.09,5.6c-1.12.56-2.39,1.05-3.86,1.05-1.87,0-3.18-.94-3.31-2.61h8.02c0-3.61-1.22-6.25-5.51-6.25-3.61,0-5.38,2.48-5.38,5.47,0,3.4,2.22,5.37,6.07,5.37,1.62,0,2.89-.28,3.99-.82v-2.2m-7.19-3.41c.13-1.4.99-2.43,2.69-2.43s2.37,1.13,2.46,2.43h-5.15Zm9.44-2.18v-4.04l3.02-.87v2.94h2.69v1.97h-2.69v4.83c0,.89.27,1.71,1.42,1.71.55,0,1.07-.1,1.37-.28l.1,2.13c-.64.16-1.34.25-2.24.25-2.37,0-3.68-1.3-3.68-3.36v-5.27m8.84,10.75c1.22,0,1.96-.74,1.96-1.84l-4.45-10.87h3.34l2.79,7.55h.05l2.79-7.55h3.06l-4.34,10.28c-.97,2.28-1.67,4.55-4.83,4.55l-.37-2.12"/>
  </g>
  <path class="cls-3" d="m12.13,23.41C6.17,21.95.64,11.85,6.73,4.05c4.85-6.18,12.23-4.4,14.64-.58,1.45,2.29,2.17,9.07-5.84,10.42-9.16,1.55-6.32,8.45-3.4,9.52"/>
  <path class="cls-2" d="m15.26,24.22c8.97,2.21,17.3,17.41,8.13,29.12-7.29,9.3-18.39,6.63-22.03.88-2.17-3.44-3.28-13.63,8.77-15.67,13.78-2.34,9.51-12.72,5.12-14.32"/>
</svg>