<?xml version="1.0" encoding="UTF-8"?>
<svg id="Layer_2" data-name="Layer 2" xmlns="http://www.w3.org/2000/svg" viewBox="0 0 676.99 254.17">
  <defs>
    <style>
      .cls-1 {
        fill: #fff;
      }

      .cls-1, .cls-2 {
        stroke-width: 0px;
      }

      .cls-2 {
        fill: #00043d;
      }
    </style>
  </defs>
  <g id="Layer_1-2" data-name="Layer 1">
    <g>
      <circle class="cls-2" cx="28.43" cy="28.43" r="28.43"/>
      <polygon class="cls-2" points="400.65 117.04 395.65 117.04 395.65 30.93 28.43 30.93 28.43 25.93 400.65 25.93 400.65 117.04"/>
      <rect class="cls-2" x="119.31" y="117.04" width="557.68" height="137.13"/>
      <g>
        <path class="cls-1" d="m204.4,165.01c2.6,1.29,4.62,3.14,6.04,5.54,1.43,2.4,2.14,5.18,2.14,8.35s-.71,5.94-2.14,8.32c-1.43,2.38-3.44,4.21-6.04,5.5-2.6,1.29-5.6,1.94-9,1.94h-9.17v15.96h-10.19v-47.54h19.36c3.4,0,6.4.65,9,1.94Zm-9.95,21.16c2.4,0,4.3-.66,5.71-1.97,1.4-1.31,2.11-3.08,2.11-5.3s-.7-4.05-2.11-5.37c-1.4-1.31-3.3-1.97-5.71-1.97h-8.22v14.6h8.22Z"/>
        <path class="cls-1" d="m250.42,210.61h-8.49l-.88-4.21c-1.22,1.45-2.65,2.58-4.28,3.4-1.63.82-3.62,1.22-5.98,1.22-4.08,0-7.4-1.26-9.98-3.77-2.58-2.51-3.87-6.71-3.87-12.6v-18.95h9.58v17.79c0,3.17.55,5.56,1.66,7.17s2.82,2.41,5.13,2.41,4.26-.89,5.57-2.68c1.31-1.79,1.97-4.29,1.97-7.5v-17.18h9.58v34.91Z"/>
        <path class="cls-1" d="m278.34,184.4h-3.8c-2.72,0-4.71.81-5.98,2.45-1.27,1.63-1.9,3.85-1.9,6.66v17.12h-9.58v-34.91h8.69l.88,5.23c1.04-1.72,2.33-3.02,3.87-3.91,1.54-.88,3.6-1.32,6.18-1.32h1.63v8.69Z"/>
        <path class="cls-1" d="m292.94,166.53c0,1.54-.52,2.83-1.56,3.87s-2.35,1.56-3.94,1.56-2.91-.52-3.97-1.56c-1.06-1.04-1.6-2.33-1.6-3.87s.53-2.82,1.6-3.84c1.06-1.02,2.39-1.53,3.97-1.53s2.9.51,3.94,1.53c1.04,1.02,1.56,2.3,1.56,3.84Zm-.75,9.17v34.91h-9.58v-34.91h9.58Z"/>
        <path class="cls-1" d="m323.16,210.61v-26.83h-12.5v26.83h-9.58v-26.83h-5.77v-8.08h5.77v-3.06c0-3.08.88-5.44,2.65-7.1,1.77-1.65,4.39-2.48,7.88-2.48h6.72v8.15h-4.82c-1,0-1.72.23-2.17.68-.45.45-.68,1.18-.68,2.17v1.63h22.07v34.91h-9.58Zm-.68-44.08c0-1.54.52-2.82,1.56-3.84,1.04-1.02,2.35-1.53,3.94-1.53s2.91.51,3.97,1.53c1.06,1.02,1.6,2.3,1.6,3.84s-.53,2.83-1.6,3.87c-1.06,1.04-2.39,1.56-3.97,1.56s-2.9-.52-3.94-1.56-1.56-2.33-1.56-3.87Z"/>
        <path class="cls-1" d="m346.43,177.5c2.65-1.47,5.72-2.21,9.2-2.21s6.64.69,9.34,2.07,4.8,3.33,6.32,5.84,2.3,5.47,2.34,8.86c0,1.22-.09,2.31-.27,3.26h-25.33v.27c.23,2.54,1.04,4.53,2.45,5.98,1.4,1.45,3.33,2.17,5.77,2.17,1.95,0,3.57-.42,4.86-1.26,1.29-.84,2.14-2.07,2.55-3.7h9.44c-.36,2.31-1.25,4.39-2.65,6.25-1.4,1.86-3.26,3.32-5.57,4.38-2.31,1.06-4.96,1.6-7.95,1.6-3.89,0-7.26-.72-10.09-2.17-2.83-1.45-5-3.52-6.52-6.21-1.52-2.69-2.27-5.83-2.27-9.41s.74-6.78,2.21-9.47c1.47-2.69,3.53-4.78,6.18-6.25Zm15.01,6.66c-1.43-1.15-3.23-1.73-5.4-1.73s-3.84.6-5.26,1.8c-1.43,1.2-2.28,2.82-2.55,4.86h15.82c-.32-2.13-1.19-3.77-2.61-4.92Z"/>
        <path class="cls-1" d="m413.77,210.61h-8.35l-.95-4.82c-2.67,3.49-6.29,5.23-10.87,5.23-3.08,0-5.84-.74-8.29-2.21s-4.36-3.57-5.74-6.28-2.07-5.86-2.07-9.44.69-6.64,2.07-9.34c1.38-2.69,3.31-4.78,5.77-6.25s5.24-2.21,8.32-2.21c4.53,0,8.04,1.58,10.53,4.75v-16.98h9.58v47.54Zm-9.44-17.39c0-3.03-.77-5.48-2.31-7.33-1.54-1.86-3.6-2.78-6.18-2.78s-4.65.93-6.21,2.78c-1.56,1.86-2.34,4.28-2.34,7.27s.78,5.41,2.34,7.27c1.56,1.86,3.63,2.78,6.21,2.78s4.64-.92,6.18-2.75c1.54-1.83,2.31-4.25,2.31-7.23Z"/>
        <path class="cls-1" d="m445.08,163l8.76,34.77,9.3-34.71h9.17l9.03,34.71,8.96-34.71h10.32l-13.18,47.54h-11.75l-8.22-31.58-8.01,31.58h-11.75l-13.18-47.54,10.53-.07Z"/>
        <path class="cls-1" d="m535.28,210.61h-4.89c-4.39,0-6.54-1.9-6.45-5.71-1.27,1.99-2.83,3.51-4.69,4.55-1.86,1.04-4.1,1.56-6.72,1.56-3.89,0-7.03-.89-9.41-2.68-2.38-1.79-3.57-4.31-3.57-7.57,0-3.71,1.37-6.58,4.11-8.59s6.71-3.02,11.92-3.02h6.93v-1.7c0-1.58-.59-2.84-1.77-3.77-1.18-.93-2.76-1.39-4.75-1.39-1.77,0-3.21.38-4.35,1.15s-1.81,1.81-2.04,3.12h-9.24c.32-3.58,1.9-6.35,4.75-8.32s6.63-2.95,11.34-2.95,8.75,1.09,11.44,3.26c2.69,2.17,4.04,5.32,4.04,9.44v12.29c0,.86.18,1.45.54,1.77.36.32.93.48,1.7.48h1.09v8.08Zm-19.76-15.08c-1.99,0-3.54.4-4.65,1.19-1.11.79-1.66,1.91-1.66,3.36,0,1.22.46,2.2,1.39,2.92s2.18,1.09,3.77,1.09c2.49,0,4.46-.71,5.91-2.14,1.45-1.43,2.2-3.34,2.24-5.74v-.68h-7Z"/>
        <path class="cls-1" d="m535.49,183.79v-8.08h5.77v-9.78h9.58v9.78h7.95v8.08h-7.95v15.28c0,1.22.26,2.11.78,2.65.52.54,1.39.82,2.61.82h4.96v8.08h-7.95c-6.66,0-9.98-3.33-9.98-9.98v-16.84h-5.77Z"/>
        <path class="cls-1" d="m569.69,177.5c2.65-1.47,5.72-2.21,9.2-2.21s6.64.69,9.34,2.07,4.8,3.33,6.32,5.84,2.3,5.47,2.34,8.86c0,1.22-.09,2.31-.27,3.26h-25.33v.27c.23,2.54,1.04,4.53,2.45,5.98,1.4,1.45,3.33,2.17,5.77,2.17,1.95,0,3.57-.42,4.86-1.26,1.29-.84,2.14-2.07,2.55-3.7h9.44c-.36,2.31-1.25,4.39-2.65,6.25-1.4,1.86-3.26,3.32-5.57,4.38-2.31,1.06-4.96,1.6-7.95,1.6-3.89,0-7.26-.72-10.09-2.17-2.83-1.45-5-3.52-6.52-6.21-1.52-2.69-2.27-5.83-2.27-9.41s.74-6.78,2.21-9.47c1.47-2.69,3.53-4.78,6.18-6.25Zm15.01,6.66c-1.43-1.15-3.23-1.73-5.4-1.73s-3.84.6-5.26,1.8c-1.43,1.2-2.28,2.82-2.55,4.86h15.82c-.32-2.13-1.19-3.77-2.61-4.92Z"/>
        <path class="cls-1" d="m623.38,184.4h-3.8c-2.72,0-4.71.81-5.98,2.45-1.27,1.63-1.9,3.85-1.9,6.66v17.12h-9.58v-34.91h8.69l.88,5.23c1.04-1.72,2.33-3.02,3.87-3.91,1.54-.88,3.6-1.32,6.18-1.32h1.63v8.69Z"/>
      </g>
    </g>
  </g>
</svg>