<?xml version="1.0" encoding="UTF-8"?>
<svg id="Layer_2" data-name="Layer 2" xmlns="http://www.w3.org/2000/svg" viewBox="0 0 627.6 254.17">
  <defs>
    <style>
      .cls-1 {
        fill: #fff;
      }

      .cls-1, .cls-2 {
        stroke-width: 0px;
      }

      .cls-2 {
        fill: #00043d;
      }
    </style>
  </defs>
  <g id="Layer_1-2" data-name="Layer 1">
    <g>
      <circle class="cls-2" cx="599.16" cy="28.43" r="28.43"/>
      <polygon class="cls-2" points="231.95 117.04 226.95 117.04 226.95 25.93 599.16 25.93 599.16 30.93 231.95 30.93 231.95 117.04"/>
      <rect class="cls-2" y="117.04" width="458.9" height="137.13"/>
      <g>
        <path class="cls-1" d="m107.19,163.07v8.76h-13.72v38.78h-10.19v-38.78h-13.72v-8.76h37.63Z"/>
        <path class="cls-1" d="m141.62,210.61h-4.89c-4.39,0-6.54-1.9-6.45-5.71-1.27,1.99-2.83,3.51-4.69,4.55-1.86,1.04-4.1,1.56-6.72,1.56-3.89,0-7.03-.89-9.41-2.68-2.38-1.79-3.57-4.31-3.57-7.57,0-3.71,1.37-6.58,4.11-8.59s6.71-3.02,11.92-3.02h6.93v-1.7c0-1.58-.59-2.84-1.77-3.77-1.18-.93-2.76-1.39-4.75-1.39-1.77,0-3.21.38-4.35,1.15-1.13.77-1.81,1.81-2.04,3.12h-9.24c.32-3.58,1.9-6.35,4.75-8.32s6.63-2.95,11.34-2.95,8.75,1.09,11.44,3.26c2.69,2.17,4.04,5.32,4.04,9.44v12.29c0,.86.18,1.45.54,1.77.36.32.93.48,1.7.48h1.09v8.08Zm-19.76-15.08c-1.99,0-3.54.4-4.65,1.19-1.11.79-1.66,1.91-1.66,3.36,0,1.22.46,2.2,1.39,2.92s2.19,1.09,3.77,1.09c2.49,0,4.46-.71,5.91-2.14,1.45-1.43,2.2-3.34,2.24-5.74v-.68h-7Z"/>
        <path class="cls-1" d="m179.56,183.79c1.38,2.72,2.07,5.86,2.07,9.44s-.69,6.7-2.07,9.37c-1.38,2.67-3.29,4.74-5.74,6.21-2.45,1.47-5.23,2.21-8.35,2.21-4.48,0-7.99-1.61-10.53-4.82v18h-9.58v-48.49h8.35l.95,4.82c1.18-1.58,2.68-2.85,4.52-3.8,1.83-.95,3.95-1.43,6.35-1.43,3.12,0,5.9.74,8.32,2.21s4.32,3.57,5.71,6.28Zm-7.64,9.3c0-2.99-.79-5.4-2.38-7.23-1.58-1.83-3.67-2.75-6.25-2.75s-4.64.92-6.18,2.75-2.31,4.25-2.31,7.23.77,5.48,2.31,7.33,3.6,2.78,6.18,2.78,4.66-.94,6.25-2.82c1.58-1.88,2.38-4.31,2.38-7.3Z"/>
        <path class="cls-1" d="m211.58,163l8.76,34.77,9.3-34.71h9.17l9.03,34.71,8.97-34.71h10.32l-13.18,47.54h-11.75l-8.22-31.58-8.01,31.58h-11.75l-13.18-47.54,10.53-.07Z"/>
        <path class="cls-1" d="m301.78,210.61h-4.89c-4.39,0-6.54-1.9-6.45-5.71-1.27,1.99-2.83,3.51-4.69,4.55-1.86,1.04-4.1,1.56-6.72,1.56-3.89,0-7.03-.89-9.41-2.68-2.38-1.79-3.57-4.31-3.57-7.57,0-3.71,1.37-6.58,4.11-8.59s6.71-3.02,11.92-3.02h6.93v-1.7c0-1.58-.59-2.84-1.77-3.77-1.18-.93-2.76-1.39-4.75-1.39-1.77,0-3.21.38-4.35,1.15-1.13.77-1.81,1.81-2.04,3.12h-9.24c.32-3.58,1.9-6.35,4.75-8.32s6.63-2.95,11.34-2.95,8.75,1.09,11.44,3.26c2.69,2.17,4.04,5.32,4.04,9.44v12.29c0,.86.18,1.45.54,1.77.36.32.93.48,1.7.48h1.09v8.08Zm-19.76-15.08c-1.99,0-3.54.4-4.65,1.19-1.11.79-1.66,1.91-1.66,3.36,0,1.22.46,2.2,1.39,2.92s2.19,1.09,3.77,1.09c2.49,0,4.46-.71,5.91-2.14,1.45-1.43,2.2-3.34,2.24-5.74v-.68h-7Z"/>
        <path class="cls-1" d="m301.99,183.79v-8.08h5.77v-9.78h9.58v9.78h7.95v8.08h-7.95v15.28c0,1.22.26,2.11.78,2.65.52.54,1.39.82,2.62.82h4.96v8.08h-7.95c-6.66,0-9.98-3.33-9.98-9.98v-16.84h-5.77Z"/>
        <path class="cls-1" d="m336.19,177.5c2.65-1.47,5.72-2.21,9.2-2.21s6.64.69,9.34,2.07c2.69,1.38,4.8,3.33,6.32,5.84,1.52,2.51,2.3,5.47,2.34,8.86,0,1.22-.09,2.31-.27,3.26h-25.33v.27c.23,2.54,1.04,4.53,2.45,5.98,1.4,1.45,3.33,2.17,5.77,2.17,1.95,0,3.57-.42,4.86-1.26s2.14-2.07,2.55-3.7h9.44c-.36,2.31-1.25,4.39-2.65,6.25-1.4,1.86-3.26,3.32-5.57,4.38-2.31,1.06-4.96,1.6-7.95,1.6-3.89,0-7.26-.72-10.09-2.17-2.83-1.45-5-3.52-6.52-6.21-1.52-2.69-2.27-5.83-2.27-9.41s.74-6.78,2.21-9.47c1.47-2.69,3.53-4.78,6.18-6.25Zm15.01,6.66c-1.43-1.15-3.23-1.73-5.4-1.73s-3.84.6-5.26,1.8-2.28,2.82-2.55,4.86h15.82c-.32-2.13-1.19-3.77-2.61-4.92Z"/>
        <path class="cls-1" d="m389.88,184.4h-3.8c-2.72,0-4.71.81-5.98,2.45-1.27,1.63-1.9,3.85-1.9,6.66v17.12h-9.58v-34.91h8.69l.88,5.23c1.04-1.72,2.33-3.02,3.87-3.91s3.6-1.32,6.18-1.32h1.63v8.69Z"/>
      </g>
    </g>
  </g>
</svg>